<mxfile host="app.diagrams.net" modified="2023-07-12T03:53:05.766Z" agent="Mozilla/5.0 (Windows NT 10.0; Win64; x64; rv:109.0) Gecko/20100101 Firefox/113.0" etag="g_O53aLrGVO6IJKilax6" version="21.6.1" type="device">
  <diagram id="C5RBs43oDa-KdzZeNtuy" name="Page-1">
    <mxGraphModel dx="989" dy="539" grid="1" gridSize="10" guides="1" tooltips="1" connect="1" arrows="1" fold="1" page="1" pageScale="1" pageWidth="827" pageHeight="1169" math="0" shadow="0">
      <root>
        <mxCell id="WIyWlLk6GJQsqaUBKTNV-0" />
        <mxCell id="WIyWlLk6GJQsqaUBKTNV-1" parent="WIyWlLk6GJQsqaUBKTNV-0" />
        <mxCell id="ZCCGvJV5tDMOx1kuHRk9-1" value="" style="edgeStyle=orthogonalEdgeStyle;rounded=0;orthogonalLoop=1;jettySize=auto;html=1;" edge="1" parent="WIyWlLk6GJQsqaUBKTNV-1" source="WIyWlLk6GJQsqaUBKTNV-3" target="ZCCGvJV5tDMOx1kuHRk9-0">
          <mxGeometry relative="1" as="geometry" />
        </mxCell>
        <mxCell id="WIyWlLk6GJQsqaUBKTNV-3" value="Start" style="rounded=1;whiteSpace=wrap;html=1;fontSize=12;glass=0;strokeWidth=1;shadow=0;" parent="WIyWlLk6GJQsqaUBKTNV-1" vertex="1">
          <mxGeometry x="170" y="20" width="120" height="40" as="geometry" />
        </mxCell>
        <mxCell id="WIyWlLk6GJQsqaUBKTNV-11" value="End" style="rounded=1;whiteSpace=wrap;html=1;fontSize=12;glass=0;strokeWidth=1;shadow=0;" parent="WIyWlLk6GJQsqaUBKTNV-1" vertex="1">
          <mxGeometry x="170" y="720" width="120" height="40" as="geometry" />
        </mxCell>
        <mxCell id="ZCCGvJV5tDMOx1kuHRk9-3" value="" style="edgeStyle=orthogonalEdgeStyle;rounded=0;orthogonalLoop=1;jettySize=auto;html=1;" edge="1" parent="WIyWlLk6GJQsqaUBKTNV-1" source="ZCCGvJV5tDMOx1kuHRk9-0" target="ZCCGvJV5tDMOx1kuHRk9-2">
          <mxGeometry relative="1" as="geometry" />
        </mxCell>
        <mxCell id="ZCCGvJV5tDMOx1kuHRk9-0" value="&lt;div&gt;tt = []&lt;/div&gt;&lt;div&gt;index = 0&lt;br&gt;&lt;/div&gt;" style="rounded=0;whiteSpace=wrap;html=1;" vertex="1" parent="WIyWlLk6GJQsqaUBKTNV-1">
          <mxGeometry x="122" y="80" width="216" height="60" as="geometry" />
        </mxCell>
        <mxCell id="ZCCGvJV5tDMOx1kuHRk9-5" value="" style="edgeStyle=orthogonalEdgeStyle;rounded=0;orthogonalLoop=1;jettySize=auto;html=1;" edge="1" parent="WIyWlLk6GJQsqaUBKTNV-1" source="ZCCGvJV5tDMOx1kuHRk9-2" target="ZCCGvJV5tDMOx1kuHRk9-4">
          <mxGeometry relative="1" as="geometry" />
        </mxCell>
        <mxCell id="ZCCGvJV5tDMOx1kuHRk9-2" value="arrLen" style="shape=parallelogram;perimeter=parallelogramPerimeter;whiteSpace=wrap;html=1;fixedSize=1;" vertex="1" parent="WIyWlLk6GJQsqaUBKTNV-1">
          <mxGeometry x="170" y="170" width="120" height="60" as="geometry" />
        </mxCell>
        <mxCell id="ZCCGvJV5tDMOx1kuHRk9-8" value="" style="edgeStyle=orthogonalEdgeStyle;rounded=0;orthogonalLoop=1;jettySize=auto;html=1;" edge="1" parent="WIyWlLk6GJQsqaUBKTNV-1" source="ZCCGvJV5tDMOx1kuHRk9-4" target="ZCCGvJV5tDMOx1kuHRk9-7">
          <mxGeometry relative="1" as="geometry" />
        </mxCell>
        <mxCell id="ZCCGvJV5tDMOx1kuHRk9-9" value="Yes" style="edgeLabel;html=1;align=center;verticalAlign=middle;resizable=0;points=[];" vertex="1" connectable="0" parent="ZCCGvJV5tDMOx1kuHRk9-8">
          <mxGeometry x="-0.64" y="1" relative="1" as="geometry">
            <mxPoint x="19" as="offset" />
          </mxGeometry>
        </mxCell>
        <mxCell id="ZCCGvJV5tDMOx1kuHRk9-14" value="" style="edgeStyle=orthogonalEdgeStyle;rounded=0;orthogonalLoop=1;jettySize=auto;html=1;" edge="1" parent="WIyWlLk6GJQsqaUBKTNV-1" source="ZCCGvJV5tDMOx1kuHRk9-4" target="ZCCGvJV5tDMOx1kuHRk9-13">
          <mxGeometry relative="1" as="geometry" />
        </mxCell>
        <mxCell id="ZCCGvJV5tDMOx1kuHRk9-15" value="No" style="edgeLabel;html=1;align=center;verticalAlign=middle;resizable=0;points=[];" vertex="1" connectable="0" parent="ZCCGvJV5tDMOx1kuHRk9-14">
          <mxGeometry x="-0.1524" relative="1" as="geometry">
            <mxPoint x="-1" y="-10" as="offset" />
          </mxGeometry>
        </mxCell>
        <mxCell id="ZCCGvJV5tDMOx1kuHRk9-4" value="index &amp;lt; arrLen" style="rhombus;whiteSpace=wrap;html=1;" vertex="1" parent="WIyWlLk6GJQsqaUBKTNV-1">
          <mxGeometry x="150" y="250" width="160" height="80" as="geometry" />
        </mxCell>
        <mxCell id="ZCCGvJV5tDMOx1kuHRk9-11" value="" style="edgeStyle=orthogonalEdgeStyle;rounded=0;orthogonalLoop=1;jettySize=auto;html=1;" edge="1" parent="WIyWlLk6GJQsqaUBKTNV-1" source="ZCCGvJV5tDMOx1kuHRk9-7" target="ZCCGvJV5tDMOx1kuHRk9-10">
          <mxGeometry relative="1" as="geometry" />
        </mxCell>
        <mxCell id="ZCCGvJV5tDMOx1kuHRk9-7" value="tt[index] " style="shape=parallelogram;perimeter=parallelogramPerimeter;whiteSpace=wrap;html=1;fixedSize=1;" vertex="1" parent="WIyWlLk6GJQsqaUBKTNV-1">
          <mxGeometry x="175" y="360" width="110" height="60" as="geometry" />
        </mxCell>
        <mxCell id="ZCCGvJV5tDMOx1kuHRk9-12" style="edgeStyle=orthogonalEdgeStyle;rounded=0;orthogonalLoop=1;jettySize=auto;html=1;entryX=0;entryY=0.5;entryDx=0;entryDy=0;" edge="1" parent="WIyWlLk6GJQsqaUBKTNV-1" source="ZCCGvJV5tDMOx1kuHRk9-10" target="ZCCGvJV5tDMOx1kuHRk9-4">
          <mxGeometry relative="1" as="geometry">
            <Array as="points">
              <mxPoint x="230" y="530" />
              <mxPoint x="110" y="530" />
              <mxPoint x="110" y="290" />
            </Array>
          </mxGeometry>
        </mxCell>
        <mxCell id="ZCCGvJV5tDMOx1kuHRk9-10" value="index ++" style="whiteSpace=wrap;html=1;" vertex="1" parent="WIyWlLk6GJQsqaUBKTNV-1">
          <mxGeometry x="170" y="450" width="120" height="60" as="geometry" />
        </mxCell>
        <mxCell id="ZCCGvJV5tDMOx1kuHRk9-17" value="" style="edgeStyle=orthogonalEdgeStyle;rounded=0;orthogonalLoop=1;jettySize=auto;html=1;" edge="1" parent="WIyWlLk6GJQsqaUBKTNV-1" source="ZCCGvJV5tDMOx1kuHRk9-13" target="ZCCGvJV5tDMOx1kuHRk9-16">
          <mxGeometry relative="1" as="geometry" />
        </mxCell>
        <mxCell id="ZCCGvJV5tDMOx1kuHRk9-13" value="&lt;div&gt;index = 0&lt;/div&gt;&lt;div&gt;countNewArr = 0&lt;/div&gt;&lt;div&gt;resArr = []&lt;br&gt;&lt;/div&gt;" style="whiteSpace=wrap;html=1;" vertex="1" parent="WIyWlLk6GJQsqaUBKTNV-1">
          <mxGeometry x="360" y="260" width="120" height="60" as="geometry" />
        </mxCell>
        <mxCell id="ZCCGvJV5tDMOx1kuHRk9-19" value="" style="edgeStyle=orthogonalEdgeStyle;rounded=0;orthogonalLoop=1;jettySize=auto;html=1;" edge="1" parent="WIyWlLk6GJQsqaUBKTNV-1" source="ZCCGvJV5tDMOx1kuHRk9-16" target="ZCCGvJV5tDMOx1kuHRk9-18">
          <mxGeometry relative="1" as="geometry" />
        </mxCell>
        <mxCell id="ZCCGvJV5tDMOx1kuHRk9-20" value="Yes" style="edgeLabel;html=1;align=center;verticalAlign=middle;resizable=0;points=[];" vertex="1" connectable="0" parent="ZCCGvJV5tDMOx1kuHRk9-19">
          <mxGeometry x="0.1069" y="1" relative="1" as="geometry">
            <mxPoint x="21" y="3" as="offset" />
          </mxGeometry>
        </mxCell>
        <mxCell id="ZCCGvJV5tDMOx1kuHRk9-30" value="" style="edgeStyle=orthogonalEdgeStyle;rounded=0;orthogonalLoop=1;jettySize=auto;html=1;entryX=0.5;entryY=0;entryDx=0;entryDy=0;" edge="1" parent="WIyWlLk6GJQsqaUBKTNV-1" source="ZCCGvJV5tDMOx1kuHRk9-16" target="ZCCGvJV5tDMOx1kuHRk9-31">
          <mxGeometry relative="1" as="geometry">
            <mxPoint x="230" y="620" as="targetPoint" />
            <Array as="points">
              <mxPoint x="320" y="390" />
              <mxPoint x="320" y="560" />
              <mxPoint x="230" y="560" />
            </Array>
          </mxGeometry>
        </mxCell>
        <mxCell id="ZCCGvJV5tDMOx1kuHRk9-32" value="No" style="edgeLabel;html=1;align=center;verticalAlign=middle;resizable=0;points=[];" vertex="1" connectable="0" parent="ZCCGvJV5tDMOx1kuHRk9-30">
          <mxGeometry x="-0.8574" y="-1" relative="1" as="geometry">
            <mxPoint x="1" y="-9" as="offset" />
          </mxGeometry>
        </mxCell>
        <mxCell id="ZCCGvJV5tDMOx1kuHRk9-16" value="index &amp;lt; arrLen" style="rhombus;whiteSpace=wrap;html=1;" vertex="1" parent="WIyWlLk6GJQsqaUBKTNV-1">
          <mxGeometry x="360" y="350" width="120" height="80" as="geometry" />
        </mxCell>
        <mxCell id="ZCCGvJV5tDMOx1kuHRk9-22" value="" style="edgeStyle=orthogonalEdgeStyle;rounded=0;orthogonalLoop=1;jettySize=auto;html=1;" edge="1" parent="WIyWlLk6GJQsqaUBKTNV-1" source="ZCCGvJV5tDMOx1kuHRk9-18" target="ZCCGvJV5tDMOx1kuHRk9-21">
          <mxGeometry relative="1" as="geometry" />
        </mxCell>
        <mxCell id="ZCCGvJV5tDMOx1kuHRk9-23" value="Yes" style="edgeLabel;html=1;align=center;verticalAlign=middle;resizable=0;points=[];" vertex="1" connectable="0" parent="ZCCGvJV5tDMOx1kuHRk9-22">
          <mxGeometry x="0.1061" relative="1" as="geometry">
            <mxPoint x="20" as="offset" />
          </mxGeometry>
        </mxCell>
        <mxCell id="ZCCGvJV5tDMOx1kuHRk9-26" style="edgeStyle=orthogonalEdgeStyle;rounded=0;orthogonalLoop=1;jettySize=auto;html=1;exitX=1;exitY=0.5;exitDx=0;exitDy=0;entryX=1;entryY=0.5;entryDx=0;entryDy=0;" edge="1" parent="WIyWlLk6GJQsqaUBKTNV-1" source="ZCCGvJV5tDMOx1kuHRk9-18" target="ZCCGvJV5tDMOx1kuHRk9-24">
          <mxGeometry relative="1" as="geometry" />
        </mxCell>
        <mxCell id="ZCCGvJV5tDMOx1kuHRk9-27" value="No" style="edgeLabel;html=1;align=center;verticalAlign=middle;resizable=0;points=[];" vertex="1" connectable="0" parent="ZCCGvJV5tDMOx1kuHRk9-26">
          <mxGeometry x="-0.533" y="3" relative="1" as="geometry">
            <mxPoint x="-13" y="-44" as="offset" />
          </mxGeometry>
        </mxCell>
        <mxCell id="ZCCGvJV5tDMOx1kuHRk9-18" value="tt[index].Lenght &amp;lt; 4" style="rhombus;whiteSpace=wrap;html=1;" vertex="1" parent="WIyWlLk6GJQsqaUBKTNV-1">
          <mxGeometry x="340" y="450" width="160" height="80" as="geometry" />
        </mxCell>
        <mxCell id="ZCCGvJV5tDMOx1kuHRk9-25" value="" style="edgeStyle=orthogonalEdgeStyle;rounded=0;orthogonalLoop=1;jettySize=auto;html=1;" edge="1" parent="WIyWlLk6GJQsqaUBKTNV-1" source="ZCCGvJV5tDMOx1kuHRk9-21" target="ZCCGvJV5tDMOx1kuHRk9-24">
          <mxGeometry relative="1" as="geometry" />
        </mxCell>
        <mxCell id="ZCCGvJV5tDMOx1kuHRk9-21" value="&lt;div&gt;resArr[countNewArr] = tt[index]&lt;/div&gt;&lt;div&gt;countNewArr ++&lt;br&gt;&lt;/div&gt;" style="whiteSpace=wrap;html=1;" vertex="1" parent="WIyWlLk6GJQsqaUBKTNV-1">
          <mxGeometry x="360" y="555" width="120" height="60" as="geometry" />
        </mxCell>
        <mxCell id="ZCCGvJV5tDMOx1kuHRk9-28" style="edgeStyle=orthogonalEdgeStyle;rounded=0;orthogonalLoop=1;jettySize=auto;html=1;entryX=1;entryY=0.5;entryDx=0;entryDy=0;" edge="1" parent="WIyWlLk6GJQsqaUBKTNV-1" source="ZCCGvJV5tDMOx1kuHRk9-24" target="ZCCGvJV5tDMOx1kuHRk9-16">
          <mxGeometry relative="1" as="geometry">
            <Array as="points">
              <mxPoint x="420" y="720" />
              <mxPoint x="560" y="720" />
              <mxPoint x="560" y="390" />
            </Array>
          </mxGeometry>
        </mxCell>
        <mxCell id="ZCCGvJV5tDMOx1kuHRk9-24" value="index ++" style="whiteSpace=wrap;html=1;" vertex="1" parent="WIyWlLk6GJQsqaUBKTNV-1">
          <mxGeometry x="360" y="630" width="120" height="60" as="geometry" />
        </mxCell>
        <mxCell id="ZCCGvJV5tDMOx1kuHRk9-33" value="" style="edgeStyle=orthogonalEdgeStyle;rounded=0;orthogonalLoop=1;jettySize=auto;html=1;" edge="1" parent="WIyWlLk6GJQsqaUBKTNV-1" source="ZCCGvJV5tDMOx1kuHRk9-31" target="WIyWlLk6GJQsqaUBKTNV-11">
          <mxGeometry relative="1" as="geometry" />
        </mxCell>
        <mxCell id="ZCCGvJV5tDMOx1kuHRk9-31" value="resArr" style="shape=document;whiteSpace=wrap;html=1;boundedLbl=1;" vertex="1" parent="WIyWlLk6GJQsqaUBKTNV-1">
          <mxGeometry x="170" y="590" width="120" height="80" as="geometry" />
        </mxCell>
      </root>
    </mxGraphModel>
  </diagram>
</mxfile>
